<svg width="39" height="39" viewBox="0 0 39 39" fill="none" xmlns="http://www.w3.org/2000/svg">
<rect x="0.376465" width="38.3764" height="38.3764" rx="19.1882" fill="#202F66"/>
<path d="M19.5679 9.75054C22.6442 9.75054 23.0053 9.76426 24.2212 9.81911C25.3457 9.86939 25.9537 10.0568 26.3605 10.2168C26.8999 10.4271 27.2838 10.6739 27.6861 11.0761C28.0883 11.4784 28.3397 11.8624 28.5454 12.4017C28.7008 12.8086 28.8928 13.4165 28.9431 14.541C28.998 15.7569 29.0117 16.118 29.0117 19.1943C29.0117 22.2706 28.998 22.6317 28.9431 23.8476C28.8928 24.9721 28.7054 25.58 28.5454 25.9869C28.3352 26.5262 28.0883 26.9102 27.6861 27.3125C27.2838 27.7147 26.8999 27.9661 26.3605 28.1718C25.9537 28.3272 25.3457 28.5192 24.2212 28.5695C23.0053 28.6243 22.6442 28.6381 19.5679 28.6381C16.4916 28.6381 16.1305 28.6243 14.9146 28.5695C13.7901 28.5192 13.1822 28.3318 12.7753 28.1718C12.236 27.9615 11.852 27.7147 11.4497 27.3125C11.0475 26.9102 10.7961 26.5262 10.5904 25.9869C10.435 25.58 10.243 24.9721 10.1927 23.8476C10.1379 22.6317 10.1241 22.2706 10.1241 19.1943C10.1241 16.118 10.1379 15.7569 10.1927 14.541C10.243 13.4165 10.4304 12.8086 10.5904 12.4017C10.8007 11.8624 11.0475 11.4784 11.4497 11.0761C11.852 10.6739 12.236 10.4225 12.7753 10.2168C13.1822 10.0614 13.7901 9.86939 14.9146 9.81911C16.1305 9.75969 16.4962 9.75054 19.5679 9.75054ZM19.5679 7.67529C16.4413 7.67529 16.0482 7.68901 14.8186 7.74386C13.5936 7.79871 12.7571 7.99527 12.0257 8.27867C11.2669 8.57122 10.627 8.9689 9.98702 9.60884C9.34707 10.2488 8.95396 10.8933 8.65684 11.6475C8.37344 12.3789 8.17688 13.2154 8.12203 14.445C8.06718 15.67 8.05347 16.0631 8.05347 19.1897C8.05347 22.3163 8.06718 22.7094 8.12203 23.939C8.17688 25.1641 8.37344 26.0006 8.65684 26.7365C8.94939 27.4953 9.34707 28.1352 9.98702 28.7752C10.627 29.4151 11.2715 29.8082 12.0257 30.1054C12.7571 30.3888 13.5936 30.5853 14.8232 30.6402C16.0528 30.695 16.4413 30.7087 19.5725 30.7087C22.7036 30.7087 23.0922 30.695 24.3218 30.6402C25.5468 30.5853 26.3833 30.3888 27.1193 30.1054C27.8781 29.8128 28.518 29.4151 29.158 28.7752C29.7979 28.1352 30.191 27.4907 30.4881 26.7365C30.7715 26.0051 30.9681 25.1686 31.0229 23.939C31.0778 22.7094 31.0915 22.3209 31.0915 19.1897C31.0915 16.0586 31.0778 15.67 31.0229 14.4404C30.9681 13.2154 30.7715 12.3789 30.4881 11.643C30.1956 10.8842 29.7979 10.2442 29.158 9.60427C28.518 8.96433 27.8735 8.57122 27.1193 8.2741C26.3879 7.99069 25.5514 7.79414 24.3218 7.73929C23.0876 7.68901 22.6945 7.67529 19.5679 7.67529Z" fill="white"/>
<path d="M19.5675 13.2794C16.3038 13.2794 13.6526 15.926 13.6526 19.1943C13.6526 22.4626 16.2992 25.1092 19.5675 25.1092C22.8358 25.1092 25.4824 22.4626 25.4824 19.1943C25.4824 15.926 22.8358 13.2794 19.5675 13.2794ZM19.5675 23.0294C17.4465 23.0294 15.7278 21.3107 15.7278 19.1897C15.7278 17.0687 17.4465 15.35 19.5675 15.35C21.6885 15.35 23.4072 17.0687 23.4072 19.1897C23.4072 21.3107 21.6885 23.0294 19.5675 23.0294Z" fill="white"/>
<path d="M25.7157 14.4221C26.4781 14.4221 27.0961 13.804 27.0961 13.0416C27.0961 12.2792 26.4781 11.6612 25.7157 11.6612C24.9533 11.6612 24.3352 12.2792 24.3352 13.0416C24.3352 13.804 24.9533 14.4221 25.7157 14.4221Z" fill="white"/>
</svg>
