<svg width="220" height="55" viewBox="0 0 220 55" fill="none" xmlns="http://www.w3.org/2000/svg">
<path d="M73.1236 21.9101C73.1236 25.1132 75.2431 27.5799 78.8839 27.5799C82.5247 27.5799 84.6442 25.1132 84.6442 21.9101C84.6442 18.707 82.5247 16.1927 78.8839 16.1927C75.2431 16.1927 73.1236 18.8022 73.1236 21.9101ZM73.42 12.0993H73.5206C75.1453 9.585 78.196 8.40344 81.1517 8.40344C88.6849 8.40344 93.9027 14.7144 93.9027 21.9577C93.9027 29.201 88.7324 35.3692 81.2468 35.3692C78.3442 35.3692 75.341 34.3332 73.42 32.1157V47.1511H64.4607V9.24341H73.42V12.1021V12.0993Z" fill="#202F66"/>
<path d="M138.134 12.3961H138.232C140.352 9.585 142.958 8.40344 146.21 8.40344C149.854 8.40344 153.005 9.88179 154.825 13.2333C156.548 10.0778 159.945 8.40344 163.393 8.40344C169.794 8.40344 172.008 12.5921 172.008 18.4103V34.5292H163.046V22.4505C163.046 19.841 163.147 15.5516 159.352 15.5516C155.217 15.5516 155.071 19.4462 155.071 22.4505V34.5292H146.109V22.4505C146.109 19.6422 146.109 15.3528 142.122 15.3528C138.134 15.3528 138.134 19.6422 138.134 22.4505V34.5292H129.175V9.24341H138.134V12.3989V12.3961Z" fill="#202F66"/>
<path d="M216.078 29.7498C216.078 32.9052 213.519 35.5175 210.32 35.5175C207.121 35.5175 204.56 32.9052 204.56 29.7498C204.56 26.5943 207.118 23.982 210.32 23.982C213.522 23.982 216.078 26.5439 216.078 29.7498Z" fill="#202F66"/>
<path d="M17.9501 27.0535C15.1118 27.0535 12.8105 24.7492 12.8105 21.9073C12.8105 19.0654 15.1118 16.7611 17.9501 16.7611C20.7883 16.7611 23.0896 19.0654 23.0896 21.9073C23.0896 24.7492 20.7883 27.0535 17.9501 27.0535ZM17.9501 8.30823C10.4588 8.30823 4.36853 14.4092 4.36853 21.9073C4.36853 29.4054 10.4616 35.5064 17.9501 35.5064C25.4385 35.5064 31.5316 29.4054 31.5316 21.9073C31.5316 14.4092 25.4385 8.30823 17.9501 8.30823Z" fill="#202F66"/>
<path d="M47.599 27.0535C44.7608 27.0535 42.4594 24.7492 42.4594 21.9073C42.4594 19.0654 44.7608 16.7611 47.599 16.7611C50.4372 16.7611 52.7385 19.0654 52.7385 21.9073C52.7385 24.7492 50.4372 27.0535 47.599 27.0535ZM47.599 8.30823C40.1078 8.30823 34.0175 14.4092 34.0175 21.9073C34.0175 29.4054 40.1105 35.5064 47.599 35.5064C55.0874 35.5064 61.1805 29.4054 61.1805 21.9073C61.1805 14.4092 55.0874 8.30823 47.599 8.30823Z" fill="#202F66"/>
<path d="M188.654 27.0535C185.816 27.0535 183.515 24.7492 183.515 21.9073C183.515 19.0654 185.816 16.7611 188.654 16.7611C191.493 16.7611 193.794 19.0654 193.794 21.9073C193.794 24.7492 191.493 27.0535 188.654 27.0535ZM188.654 8.30823C181.163 8.30823 175.073 14.4092 175.073 21.9073C175.073 29.4054 181.163 35.5064 188.654 35.5064C196.146 35.5064 202.236 29.4054 202.236 21.9073C202.236 14.4092 196.146 8.30823 188.654 8.30823Z" fill="#202F66"/>
<path d="M108.136 34.5293H99.1763V16.638H96.271V9.24064H99.1763V1.64734H108.136V9.24064H113.208V16.638H108.136V34.5293Z" fill="#202F66"/>
<path d="M125.025 9.2406H116.066V34.5292H125.025V9.2406Z" fill="#202F66"/>
</svg>
