<svg width="152" height="44" viewBox="0 0 152 44" fill="none" xmlns="http://www.w3.org/2000/svg">
<path d="M51.342 21.1864C51.342 23.3726 52.7887 25.0562 55.2736 25.0562C57.7586 25.0562 59.2053 23.3726 59.2053 21.1864C59.2053 19.0002 57.7586 17.284 55.2736 17.284C52.7887 17.284 51.342 19.0651 51.342 21.1864ZM51.5443 14.4901H51.613C52.7219 12.774 54.8041 11.9675 56.8215 11.9675C61.9632 11.9675 65.5246 16.275 65.5246 21.2189C65.5246 26.1627 61.9956 30.3727 56.8864 30.3727C54.9053 30.3727 52.8555 29.6657 51.5443 28.1521V38.4144H45.4292V12.5408H51.5443V14.492V14.4901Z" fill="white"/>
<path d="M95.7144 14.6927H95.7812C97.2279 12.774 99.0067 11.9675 101.226 11.9675C103.713 11.9675 105.864 12.9766 107.107 15.2641C108.282 13.1103 110.601 11.9675 112.955 11.9675C117.323 11.9675 118.835 14.8264 118.835 18.7976V29.7994H112.718V21.5552C112.718 19.7741 112.787 16.8464 110.197 16.8464C107.374 16.8464 107.275 19.5047 107.275 21.5552V29.7994H101.158V21.5552C101.158 19.6384 101.158 16.7107 98.4361 16.7107C95.7144 16.7107 95.7144 19.6384 95.7144 21.5552V29.7994H89.5994V12.5408H95.7144V14.6946V14.6927Z" fill="white"/>
<path d="M148.914 26.5373C148.914 28.691 147.168 30.474 144.984 30.474C142.801 30.474 141.052 28.691 141.052 26.5373C141.052 24.3835 142.799 22.6005 144.984 22.6005C147.169 22.6005 148.914 24.3491 148.914 26.5373Z" fill="white"/>
<path d="M13.684 24.6969C11.7468 24.6969 10.176 23.1241 10.176 21.1844C10.176 19.2447 11.7468 17.6719 13.684 17.6719C15.6212 17.6719 17.192 19.2447 17.192 21.1844C17.192 23.1241 15.6212 24.6969 13.684 24.6969ZM13.684 11.9025C8.57093 11.9025 4.41406 16.0667 4.41406 21.1844C4.41406 26.3022 8.57284 30.4664 13.684 30.4664C18.7952 30.4664 22.9539 26.3022 22.9539 21.1844C22.9539 16.0667 18.7952 11.9025 13.684 11.9025Z" fill="white"/>
<path d="M33.9206 24.6969C31.9834 24.6969 30.4126 23.1241 30.4126 21.1844C30.4126 19.2447 31.9834 17.6719 33.9206 17.6719C35.8578 17.6719 37.4285 19.2447 37.4285 21.1844C37.4285 23.1241 35.8578 24.6969 33.9206 24.6969ZM33.9206 11.9025C28.8075 11.9025 24.6506 16.0667 24.6506 21.1844C24.6506 26.3022 28.8094 30.4664 33.9206 30.4664C39.0317 30.4664 43.1905 26.3022 43.1905 21.1844C43.1905 16.0667 39.0317 11.9025 33.9206 11.9025Z" fill="white"/>
<path d="M130.196 24.6969C128.259 24.6969 126.688 23.1241 126.688 21.1844C126.688 19.2447 128.259 17.6719 130.196 17.6719C132.134 17.6719 133.704 19.2447 133.704 21.1844C133.704 23.1241 132.134 24.6969 130.196 24.6969ZM130.196 11.9025C125.083 11.9025 120.927 16.0667 120.927 21.1844C120.927 26.3022 125.083 30.4664 130.196 30.4664C135.31 30.4664 139.466 26.3022 139.466 21.1844C139.466 16.0667 135.31 11.9025 130.196 11.9025Z" fill="white"/>
<path d="M75.2392 29.7994H69.1241V17.5879H67.1411V12.5389H69.1241V7.3562H75.2392V12.5389H78.7013V17.5879H75.2392V29.7994Z" fill="white"/>
<path d="M86.7669 12.5389H80.6519V29.7994H86.7669V12.5389Z" fill="white"/>
</svg>
