<svg width="40" height="39" viewBox="0 0 40 39" fill="none" xmlns="http://www.w3.org/2000/svg">
<rect x="0.752686" width="38.3764" height="38.3764" rx="19.1882" fill="#202F66"/>
<path d="M33.0832 12.5975C32.7671 11.4232 31.8412 10.4974 30.667 10.1812C28.5217 9.59412 19.9407 9.59412 19.9407 9.59412C19.9407 9.59412 11.3597 9.59412 9.21442 10.1587C8.06276 10.4748 7.11433 11.4232 6.79818 12.5975C6.23364 14.7427 6.23364 19.1913 6.23364 19.1913C6.23364 19.1913 6.23364 23.6625 6.79818 25.7852C7.11433 26.9594 8.04017 27.8852 9.21442 28.2014C11.3823 28.7885 19.9407 28.7885 19.9407 28.7885C19.9407 28.7885 28.5217 28.7885 30.667 28.224C31.8412 27.9078 32.7671 26.982 33.0832 25.8077C33.6478 23.6625 33.6478 19.2139 33.6478 19.2139C33.6478 19.2139 33.6703 14.7427 33.0832 12.5975Z" fill="white"/>
<path d="M17.2083 23.3011L24.3441 19.1913L17.2083 15.0814V23.3011Z" fill="#202F66"/>
</svg>
